<svg id="visual" viewBox="0 0 960 540" width="960" height="540" xmlns="http://www.w3.org/2000/svg" xmlns:xlink="http://www.w3.org/1999/xlink" version="1.1"><rect x="0" y="0" width="960" height="540" fill="#CCCCCC"></rect><path d="M0 371L17.8 372.8C35.7 374.7 71.3 378.3 106.8 375.2C142.3 372 177.7 362 213.2 362.8C248.7 363.7 284.3 375.3 320 379.3C355.7 383.3 391.3 379.7 426.8 380.5C462.3 381.3 497.7 386.7 533.2 383.2C568.7 379.7 604.3 367.3 640 360.3C675.7 353.3 711.3 351.7 746.8 358.5C782.3 365.3 817.7 380.7 853.2 379C888.7 377.3 924.3 358.7 942.2 349.3L960 340L960 541L942.2 541C924.3 541 888.7 541 853.2 541C817.7 541 782.3 541 746.8 541C711.3 541 675.7 541 640 541C604.3 541 568.7 541 533.2 541C497.7 541 462.3 541 426.8 541C391.3 541 355.7 541 320 541C284.3 541 248.7 541 213.2 541C177.7 541 142.3 541 106.8 541C71.3 541 35.7 541 17.8 541L0 541Z" fill="#69dbfa"></path><path d="M0 438L17.8 434.8C35.7 431.7 71.3 425.3 106.8 423.5C142.3 421.7 177.7 424.3 213.2 425.5C248.7 426.7 284.3 426.3 320 421.5C355.7 416.7 391.3 407.3 426.8 405.8C462.3 404.3 497.7 410.7 533.2 417.2C568.7 423.7 604.3 430.3 640 428.3C675.7 426.3 711.3 415.7 746.8 411.7C782.3 407.7 817.7 410.3 853.2 411.8C888.7 413.3 924.3 413.7 942.2 413.8L960 414L960 541L942.2 541C924.3 541 888.7 541 853.2 541C817.7 541 782.3 541 746.8 541C711.3 541 675.7 541 640 541C604.3 541 568.7 541 533.2 541C497.7 541 462.3 541 426.8 541C391.3 541 355.7 541 320 541C284.3 541 248.7 541 213.2 541C177.7 541 142.3 541 106.8 541C71.3 541 35.7 541 17.8 541L0 541Z" fill="#21a8e6"></path><path d="M0 469L17.8 471.8C35.7 474.7 71.3 480.3 106.8 482.8C142.3 485.3 177.7 484.7 213.2 481.2C248.7 477.7 284.3 471.3 320 466.7C355.7 462 391.3 459 426.8 462.5C462.3 466 497.7 476 533.2 478.2C568.7 480.3 604.3 474.7 640 471.7C675.7 468.7 711.3 468.3 746.8 469.8C782.3 471.3 817.7 474.7 853.2 478.3C888.7 482 924.3 486 942.2 488L960 490L960 541L942.2 541C924.3 541 888.7 541 853.2 541C817.7 541 782.3 541 746.8 541C711.3 541 675.7 541 640 541C604.3 541 568.7 541 533.2 541C497.7 541 462.3 541 426.8 541C391.3 541 355.7 541 320 541C284.3 541 248.7 541 213.2 541C177.7 541 142.3 541 106.8 541C71.3 541 35.7 541 17.8 541L0 541Z" fill="#2473c7"></path></svg>