<svg id="visual" viewBox="0 0 900 600" width="900" height="600" xmlns="http://www.w3.org/2000/svg" xmlns:xlink="http://www.w3.org/1999/xlink" version="1.1"><rect x="0" y="0" width="900" height="600" fill="#CCCCCC"></rect><path d="M0 502L21.5 493.5C43 485 86 468 128.8 459C171.7 450 214.3 449 257.2 454.7C300 460.3 343 472.7 385.8 483.5C428.7 494.3 471.3 503.7 514.2 502C557 500.3 600 487.7 642.8 479.8C685.7 472 728.3 469 771.2 466.5C814 464 857 462 878.5 461L900 460L900 601L878.5 601C857 601 814 601 771.2 601C728.3 601 685.7 601 642.8 601C600 601 557 601 514.2 601C471.3 601 428.7 601 385.8 601C343 601 300 601 257.2 601C214.3 601 171.7 601 128.8 601C86 601 43 601 21.5 601L0 601Z" fill="#6396e3" stroke-linecap="round" stroke-linejoin="miter"></path></svg>